<?xml version="1.0" standalone="yes"?>
<svg xmlns="http://www.w3.org/2000/svg" width="400" height="400">
<path style="fill:#161110; stroke:none;" d="M0 0L0 400L400 400L400 0L0 0z"/>
<path style="fill:#fdfefe; stroke:none;" d="M77 352C73.575 347.178 64.2569 342.429 63.3511 336.424C62.8178 332.889 65.2918 327.54 66 324C72.5159 291.427 103.68 283.105 133 277.611C139.74 276.348 153.523 271.077 159.907 272.661C164.132 273.71 167.113 280.669 169.333 284C177.701 296.553 180.099 313.226 189 325C193.425 313.205 199.716 293.5 186 286L186 284L199 278L199 277C193.032 273.819 177.131 270.005 174.237 263.62C171.375 257.308 176.718 247.941 172.258 241.039C168.314 234.937 161.013 230.495 156.184 225C150.092 218.066 147.334 209.377 142.009 202.144C139.539 198.789 135.135 198.041 132.394 194.891C126.82 188.489 125.933 177.121 125.17 169C124.258 159.291 131.936 154.216 131.999 145C132.283 103.793 147.661 64.1125 195 62.0394C211.184 61.3306 231.111 63.5568 243.996 74.3287C248.894 78.4232 251.183 83.9828 255.239 88.7145C263.188 97.9863 270.161 106.623 272.539 119C274.749 130.495 269.252 139.197 269.358 150C269.402 154.503 273.762 157.629 274.656 162C276.419 170.62 273.55 182.998 270.236 190.999C267.647 197.249 262.621 196.92 258.648 201.303C253.527 206.954 250.92 215.739 246.24 222C241.129 228.838 233.605 233.459 228.434 240.09C222.854 247.244 228.849 256.813 225.763 263.62C222.869 270.005 206.968 273.819 201 277L201 278L214 284L214 286C198.497 293.577 208.995 312.374 210 325C214.244 322.104 215.542 315.641 217.4 311C221.384 301.046 225.371 291.944 231.333 283C233.415 279.877 236.112 273.636 240.093 272.662C246.335 271.135 260.378 276.476 267 277.8C296.281 283.656 327.427 291.142 334 324C334.72 327.599 337.192 332.977 336.649 336.576C335.764 342.441 326.366 347.261 323 352C344.204 337.501 361.823 313.789 373.247 291C423.904 189.946 381.324 61.8625 274 18.8002C255.963 11.5632 236.455 6.42184 217 5.08951C156.592 0.952698 96.1727 22.604 55.1698 68C-4.33491 133.88 -11.9183 235.123 37.3333 309C47.9251 324.888 61.1265 341.146 77 352z"/>
<path style="fill:#f2b181; stroke:none;" d="M190 62L191 63L190 62z"/>
<path style="fill:#88afc7; stroke:none;" d="M191 62L192 63L191 62z"/>
<path style="fill:#785c4b; stroke:none;" d="M192 62L192 63L209 63L192 62z"/>
<path style="fill:#88afc7; stroke:none;" d="M209 62L210 63L209 62z"/>
<path style="fill:#f2b181; stroke:none;" d="M183 63L184 64L183 63z"/>
<path style="fill:#785c4b; stroke:none;" d="M184 63L184 64L187 64L184 63z"/>
<path style="fill:#161110; stroke:none;" d="M133 152C145.062 151.626 136.946 169.016 144 174C144 166.542 143.287 157.509 147.703 151.015C152.193 144.411 161.31 140.416 168 136.4C184.627 126.419 210.529 103.544 230.001 106.559C233.183 107.052 237.886 105.551 240.697 107.117C244.898 109.459 245.57 119.723 246.626 124C250.709 140.546 256 156.914 256 174C263.995 168.817 254.276 151.438 268 152C271.203 138.475 274.996 126.894 270.48 113C265.983 99.1637 252.305 79.3332 240 71.5594C215.905 56.338 172.655 59.3651 152.09 79.1736C132.379 98.1604 133 126.868 133 152z"/>
<path style="fill:#785c4b; stroke:none;" d="M214.667 63.3333L215.333 63.6667L214.667 63.3333z"/>
<path style="fill:#88afc7; stroke:none;" d="M216 63L217 64L216 63z"/>
<path style="fill:#f2b181; stroke:none;" d="M217 63L218 64L217 63z"/>
<path style="fill:#88afc7; stroke:none;" d="M179 64L180 65L179 64z"/>
<path style="fill:#785c4b; stroke:none;" d="M180.667 64.3333L181.333 64.6667L180.667 64.3333M220.667 64.3333L221.333 64.6667L220.667 64.3333z"/>
<path style="fill:#88afc7; stroke:none;" d="M222 64L223 65L222 64M175 65L176 66L175 65z"/>
<path style="fill:#785c4b; stroke:none;" d="M176.667 65.3333L177.333 65.6667L176.667 65.3333M224.667 65.3333L225.333 65.6667L224.667 65.3333z"/>
<path style="fill:#88afc7; stroke:none;" d="M226 65L227 66L226 65M172 66L173 67L172 66z"/>
<path style="fill:#785c4b; stroke:none;" d="M173 66L174 67L173 66M227.667 66.3333L228.333 66.6667L227.667 66.3333z"/>
<path style="fill:#88afc7; stroke:none;" d="M229 66L230 67L229 66M169 67L170 68L169 67z"/>
<path style="fill:#785c4b; stroke:none;" d="M170 67L171 68L170 67M231 67L232 68L231 67z"/>
<path style="fill:#f2b181; stroke:none;" d="M232 67L233 68L232 67z"/>
<path style="fill:#88afc7; stroke:none;" d="M167 68L168 69L167 68z"/>
<path style="fill:#785c4b; stroke:none;" d="M168 68L169 69L168 68M233 68L234 69L233 68z"/>
<path style="fill:#88afc7; stroke:none;" d="M234 68L235 69L234 68M165 69L166 70L165 69z"/>
<path style="fill:#785c4b; stroke:none;" d="M166 69L167 70L166 69M236 69L237 70L236 69z"/>
<path style="fill:#88afc7; stroke:none;" d="M163 70L164 71L163 70z"/>
<path style="fill:#785c4b; stroke:none;" d="M164 70L165 71L164 70M238 70L239 71L238 70z"/>
<path style="fill:#f2b181; stroke:none;" d="M161 71L162 72L161 71z"/>
<path style="fill:#785c4b; stroke:none;" d="M162 71L163 72L162 71z"/>
<path style="fill:#88afc7; stroke:none;" d="M240 71L241 72L240 71z"/>
<path style="fill:#785c4b; stroke:none;" d="M160 72L161 73L160 72M241 72L242 73L241 72z"/>
<path style="fill:#88afc7; stroke:none;" d="M158 73L159 74L158 73z"/>
<path style="fill:#785c4b; stroke:none;" d="M159 73L160 74L159 73M242 73L243 74L242 73z"/>
<path style="fill:#88afc7; stroke:none;" d="M243 73L244 74L243 73M157 74L158 75L157 74M244 74L245 75L244 74z"/>
<path style="fill:#785c4b; stroke:none;" d="M156 75L157 76L156 75z"/>
<path style="fill:#88afc7; stroke:none;" d="M245 75L246 76L245 75z"/>
<path style="fill:#785c4b; stroke:none;" d="M155 76L156 77L155 76z"/>
<path style="fill:#88afc7; stroke:none;" d="M246 76L247 77L246 76M153 77L154 78L153 77M247 77L248 78L247 77M152 78L153 79L152 78M248 78L249 79L248 78z"/>
<path style="fill:#785c4b; stroke:none;" d="M151 79L152 80L151 79z"/>
<path style="fill:#88afc7; stroke:none;" d="M249 79L250 80L249 79z"/>
<path style="fill:#785c4b; stroke:none;" d="M150 80L151 81L150 80M249 80L250 81L249 80z"/>
<path style="fill:#88afc7; stroke:none;" d="M149 81L150 82L149 81z"/>
<path style="fill:#785c4b; stroke:none;" d="M250 81L251 82L250 81z"/>
<path style="fill:#f2b181; stroke:none;" d="M148 82L149 83L148 82z"/>
<path style="fill:#785c4b; stroke:none;" d="M148 83L149 84L148 83M251 83L252 84L251 83M147 84L148 85L147 84M146 85L147 86L146 85M252 85L254 88L252 85z"/>
<path style="fill:#88afc7; stroke:none;" d="M145 86L146 87L145 86z"/>
<path style="fill:#f2b181; stroke:none;" d="M253 86L254 87L253 86z"/>
<path style="fill:#785c4b; stroke:none;" d="M145 87L146 88L145 87z"/>
<path style="fill:#88afc7; stroke:none;" d="M144 88L145 89L144 88z"/>
<path style="fill:#785c4b; stroke:none;" d="M254 88L255 89L254 88M255 89L256 90L255 89M143 90L144 91L143 90M256 90L257 91L256 90z"/>
<path style="fill:#f2b181; stroke:none;" d="M257 90L258 91L257 90z"/>
<path style="fill:#88afc7; stroke:none;" d="M142 91L143 92L142 91z"/>
<path style="fill:#785c4b; stroke:none;" d="M142 92L143 93L142 92M258 92L259 93L258 92M141 93L142 94L141 93M259 93L260 94L259 93M260 94L261 95L260 94M140.333 95.6667L140.667 96.3333L140.333 95.6667M261 95L262 96L261 95z"/>
<path style="fill:#88afc7; stroke:none;" d="M262 96L263 97L262 96M139 97L140 98L139 97z"/>
<path style="fill:#f2b181; stroke:none;" d="M263 97L264 98L263 97z"/>
<path style="fill:#785c4b; stroke:none;" d="M139 98L140 99L139 98M263 98L264 99L263 98z"/>
<path style="fill:#f2b181; stroke:none;" d="M138 99L139 100L138 99z"/>
<path style="fill:#88afc7; stroke:none;" d="M264 99L265 100L264 99z"/>
<path style="fill:#785c4b; stroke:none;" d="M138 100L139 101L138 100M264 100L265 101L264 100M265 101L266 102L265 101z"/>
<path style="fill:#88afc7; stroke:none;" d="M137 102L138 103L137 102M266 102L267 103L266 102z"/>
<path style="fill:#785c4b; stroke:none;" d="M137 103L138 104L137 103M266 103L267 104L266 103M222 104L223 105L222 104z"/>
<path style="fill:#88afc7; stroke:none;" d="M267 104L268 105L267 104M136 105L137 106L136 105z"/>
<path style="fill:#785c4b; stroke:none;" d="M220 105L215 108L215 109L221 106L220 105z"/>
<path style="fill:#f2b181; stroke:none;" d="M141 176C140.95 169.929 141.137 160.679 138.436 155.149C135.207 148.539 127.607 154.533 125.894 159.001C122.773 167.137 126.024 179.981 128.44 188C130.915 196.217 136.367 195.799 141.031 201.314C146.229 207.461 148.814 216.383 153.76 223C159.055 230.084 168.878 235.213 172.821 243.004C176.08 249.444 174.373 258.345 173 265L200 277.009L227 265C225.627 258.345 223.92 249.444 227.179 243.004C231.122 235.213 240.945 230.084 246.24 223C251.183 216.386 253.768 207.453 258.969 201.314C263.567 195.888 268.738 197.206 271.275 189C273.852 180.669 277.411 167.507 274.106 159.005C272.591 155.106 265.588 149.191 262.024 154.322C258.716 159.084 259.117 170.328 259 176L253.765 155L242 107C235.848 107 226.647 104.475 221 105.919C205.54 109.873 188.665 124.348 175 132.551C166.781 137.485 154.41 142.352 148.514 150.093C142.66 157.779 147.872 168.924 141 176z"/>
<path style="fill:#785c4b; stroke:none;" d="M224 105L225 106L224 105M267 105L268 106L267 105M136.333 106.667L136.667 107.333L136.333 106.667M226 106L226 107L230 107L226 106M237 106L237 107L242 107L237 106z"/>
<path style="fill:#88afc7; stroke:none;" d="M268 106L269 107L268 106z"/>
<path style="fill:#785c4b; stroke:none;" d="M242 107L242 110L243 110L242 107M268 107L269 108L268 107z"/>
<path style="fill:#f2b181; stroke:none;" d="M135 108L136 109L135 108z"/>
<path style="fill:#785c4b; stroke:none;" d="M135 109L135 112L136 112L135 109M213 109L214 110L213 109z"/>
<path style="fill:#88afc7; stroke:none;" d="M269 109L270 110L269 109z"/>
<path style="fill:#785c4b; stroke:none;" d="M211.667 110.333L212.333 110.667L211.667 110.333M269 110L270 111L269 110M210 111L211 112L210 111M243 111L243 114L244 114L243 111z"/>
<path style="fill:#f2b181; stroke:none;" d="M270 111L271 112L270 111z"/>
<path style="fill:#785c4b; stroke:none;" d="M208 112L209 113L208 112M270 112L271 113L270 112z"/>
<path style="fill:#88afc7; stroke:none;" d="M134 113L135 114L134 113z"/>
<path style="fill:#785c4b; stroke:none;" d="M206.667 113.333L207.333 113.667L206.667 113.333M134.333 114.667L134.667 115.333L134.333 114.667M204.667 114.333L205.333 114.667L204.667 114.333z"/>
<path style="fill:#f2b181; stroke:none;" d="M271 114L272 115L271 114z"/>
<path style="fill:#785c4b; stroke:none;" d="M203 115L204 116L203 115M244 115L244 118L245 118L244 115M271.333 115.667L271.667 116.333L271.333 115.667M201.667 116.333L202.333 116.667L201.667 116.333M199.667 117.333L200.333 117.667L199.667 117.333z"/>
<path style="fill:#88afc7; stroke:none;" d="M133.333 118.667L133.667 119.333L133.333 118.667z"/>
<path style="fill:#785c4b; stroke:none;" d="M198 118L199 119L198 118z"/>
<path style="fill:#88afc7; stroke:none;" d="M272 118L273 119L272 118z"/>
<path style="fill:#785c4b; stroke:none;" d="M196 119L197 120L196 119M245 119L245 122L246 122L245 119M272 119L272 123L273 123L272 119M133 120L133 123L134 123L133 120M194.667 120.333L195.333 120.667L194.667 120.333M193 121L194 122L193 121M191 122L192 123L191 122M189 123L190 124L189 123M246 123L246 127L247 127L246 123M187.667 124.333L188.333 124.667L187.667 124.333M186 125L187 126L186 125z"/>
<path style="fill:#f2b181; stroke:none;" d="M273 125L274 126L273 125z"/>
<path style="fill:#785c4b; stroke:none;" d="M184 126L185 127L184 126z"/>
<path style="fill:#88afc7; stroke:none;" d="M273 126L273 131L274 131L273 126z"/>
<path style="fill:#785c4b; stroke:none;" d="M182.667 127.333L183.333 127.667L182.667 127.333M247 127L247 131L248 131L247 127z"/>
<path style="fill:#f2b181; stroke:none;" d="M132 128L133 129L132 128z"/>
<path style="fill:#785c4b; stroke:none;" d="M181 128L182 129L181 128z"/>
<path style="fill:#88afc7; stroke:none;" d="M132 129L133 130L132 129z"/>
<path style="fill:#785c4b; stroke:none;" d="M179 129L180 130L179 129M132 130L132 152L133 152L132 130M177.667 130.333L178.333 130.667L177.667 130.333M176 131L177 132L176 131M174.667 132.333L175.333 132.667L174.667 132.333M248 132L248 135L249 135L248 132M172.667 133.333L173.333 133.667L172.667 133.333M272 133L272 137L273 137L272 133M171 134L172 135L171 134M169 135L170 136L169 135M167.667 136.333L168.333 136.667L167.667 136.333M249 136L249 139L250 139L249 136M166 137L167 138L166 137z"/>
<path style="fill:#88afc7; stroke:none;" d="M272 137L273 138L272 137z"/>
<path style="fill:#785c4b; stroke:none;" d="M164.667 138.333L165.333 138.667L164.667 138.333M162.667 139.333L163.333 139.667L162.667 139.333M271 139L271 142L272 142L271 139M161 140L162 141L161 140M250 140L250 144L251 144L250 140M159.667 141.333L160.333 141.667L159.667 141.333M158 142L159 143L158 142z"/>
<path style="fill:#88afc7; stroke:none;" d="M271 142L272 143L271 142z"/>
<path style="fill:#785c4b; stroke:none;" d="M156 143L157 144L156 143M154.667 144.333L155.333 144.667L154.667 144.333M251 144L251 147L252 147L251 144M270 144L271 145L270 144M153 145L154 146L153 145z"/>
<path style="fill:#88afc7; stroke:none;" d="M270 145L271 146L270 145z"/>
<path style="fill:#785c4b; stroke:none;" d="M151.667 146.333L152.333 146.667L151.667 146.333M269 146L270 147L269 146M150 147L151 148L150 147z"/>
<path style="fill:#88afc7; stroke:none;" d="M269 147L270 148L269 147z"/>
<path style="fill:#785c4b; stroke:none;" d="M149 148L150 149L149 148M148 149L149 150L148 149M252.333 149.667L252.667 150.333L252.333 149.667M268.333 149.667L268.667 150.333L268.333 149.667M147 150L148 151L147 150M135 151L136 152L135 151M253 151L253 154L254 154L253 151M264 151L265 152L264 151z"/>
<path style="fill:#88afc7; stroke:none;" d="M268.333 151.667L268.667 152.333L268.333 151.667M132 152L133 153L132 152z"/>
<path style="fill:#785c4b; stroke:none;" d="M137 152L139 154L139 152L137 152M146.333 152.667L146.667 153.333L146.333 152.667M261 152L261 154L263 152L261 152M267 152L268 153L267 152M139 154L139 160L140 160L139 154M260 154L260 161L261 161L260 154M145 155L145 160L146 160L145 155M254 155L254 159L255 159L254 155M255 159L255 167L256 167L255 159M144 160L144 171L145 171L144 160M140 162L140 169L141 169L140 162M259 163L259 170L260 170L259 163M141 172L141 176L144 175L141 172M256 174L256 175L259 176L259 173L256 174z"/>
<path style="fill:#88afc7; stroke:none;" d="M140 199L141 200L140 199M259 199L260 200L259 199M173.333 261.667L173.667 262.333L173.333 261.667M226.333 261.667L226.667 262.333L226.333 261.667M159 271L160 272L159 271z"/>
<path style="fill:#785c4b; stroke:none;" d="M160 271L152.117 276.275L152.87 288L157 318L169 315L162.192 326L170.514 337.17L199 367L201 367L229.486 337.17L237.808 326L231 315L243 318L247.13 288L247.883 276.275L239 271L225.32 293L200 355C187.945 327.94 180.951 292.877 160 271z"/>
<path style="fill:#88afc7; stroke:none;" d="M240 271L241 272L240 271M157 272L158 273L157 272M161 272L162 273L161 272M238 272L239 273L238 272M242 272L243 273L242 272M155 273L156 274L155 273M162 273L163 274L162 273M237 273L238 274L237 273M244 273L245 274L244 273M151.667 274.333L152.333 274.667L151.667 274.333M247 274L248 275L247 274M144 275L145 276L144 275z"/>
<path style="fill:#785c4b; stroke:none;" d="M145 275L145 276L149 276L145 275z"/>
<path style="fill:#88afc7; stroke:none;" d="M163 275L164 276L163 275M236 275L237 276L236 275z"/>
<path style="fill:#785c4b; stroke:none;" d="M250 275L250 276L254 276L250 275z"/>
<path style="fill:#88afc7; stroke:none;" d="M254 275L255 276L254 275M139 276L140 277L139 276z"/>
<path style="fill:#785c4b; stroke:none;" d="M140.667 276.333L141.333 276.667L140.667 276.333z"/>
<path style="fill:#88afc7; stroke:none;" d="M164 276L165 277L164 276M235 276L236 277L235 276z"/>
<path style="fill:#785c4b; stroke:none;" d="M257 276L257 277L260 277L257 276z"/>
<path style="fill:#88afc7; stroke:none;" d="M260 276L261 277L260 276M133 277L134 278L133 277z"/>
<path style="fill:#785c4b; stroke:none;" d="M134.667 277.333L135.333 277.667L134.667 277.333M264 277L265 278L264 277z"/>
<path style="fill:#88afc7; stroke:none;" d="M265 277L266 278L265 277M128.667 278.333L129.333 278.667L128.667 278.333z"/>
<path style="fill:#785c4b; stroke:none;" d="M130 278L131 279L130 278z"/>
<path style="fill:#88afc7; stroke:none;" d="M165 278L166 279L165 278M186 284L196 298L188 326L200 355L212 326C208.779 326 208.929 318.05 208.167 315C205.54 304.493 201.971 292.933 213 286C211.835 282.504 202.817 276.394 198 278C193.599 279.467 188.329 284.582 186 284M234 278L235 279L234 278z"/>
<path style="fill:#785c4b; stroke:none;" d="M269 278L270 279L269 278z"/>
<path style="fill:#88afc7; stroke:none;" d="M270 278L271 279L270 278M123 279L124 280L123 279z"/>
<path style="fill:#785c4b; stroke:none;" d="M124.667 279.333L125.333 279.667L124.667 279.333z"/>
<path style="fill:#88afc7; stroke:none;" d="M166 279L167 280L166 279M233 279L234 280L233 279z"/>
<path style="fill:#785c4b; stroke:none;" d="M273.667 279.333L274.333 279.667L273.667 279.333z"/>
<path style="fill:#88afc7; stroke:none;" d="M275 279L276 280L275 279M119 280L120 281L119 280z"/>
<path style="fill:#785c4b; stroke:none;" d="M120 280L121 281L120 280M278 280L279 281L278 280z"/>
<path style="fill:#88afc7; stroke:none;" d="M279 280L280 281L279 280M115 281L116 282L115 281z"/>
<path style="fill:#785c4b; stroke:none;" d="M116 281L117 282L116 281z"/>
<path style="fill:#88afc7; stroke:none;" d="M167 281L168 282L167 281M232 281L233 282L232 281z"/>
<path style="fill:#785c4b; stroke:none;" d="M282 281L283 282L282 281z"/>
<path style="fill:#88afc7; stroke:none;" d="M283 281L284 282L283 281M112 282L113 283L112 282z"/>
<path style="fill:#785c4b; stroke:none;" d="M113 282L114 283L113 282z"/>
<path style="fill:#88afc7; stroke:none;" d="M168 282L169 283L168 282M231 282L232 283L231 282z"/>
<path style="fill:#785c4b; stroke:none;" d="M286 282L287 283L286 282z"/>
<path style="fill:#88afc7; stroke:none;" d="M287 282L288 283L287 282M108 283L109 284L108 283z"/>
<path style="fill:#785c4b; stroke:none;" d="M109 283L110 284L109 283M289.667 283.333L290.333 283.667L289.667 283.333z"/>
<path style="fill:#88afc7; stroke:none;" d="M291 283L292 284L291 283z"/>
<path style="fill:#f2b181; stroke:none;" d="M105 284L106 285L105 284z"/>
<path style="fill:#785c4b; stroke:none;" d="M106 284L107 285L106 284z"/>
<path style="fill:#88afc7; stroke:none;" d="M169 284L170 285L169 284z"/>
<path style="fill:#f2b181; stroke:none;" d="M187 284L188 285L187 284M212 284L214 286L214 284L212 284z"/>
<path style="fill:#88afc7; stroke:none;" d="M230 284L231 285L230 284z"/>
<path style="fill:#785c4b; stroke:none;" d="M293 284L294 285L293 284z"/>
<path style="fill:#88afc7; stroke:none;" d="M294 284L295 285L294 284z"/>
<path style="fill:#785c4b; stroke:none;" d="M103 285L104 286L103 285z"/>
<path style="fill:#f2b181; stroke:none;" d="M170 285L171 286L170 285M186 285L187 286L186 285M229 285L230 286L229 285z"/>
<path style="fill:#785c4b; stroke:none;" d="M296 285L297 286L296 285z"/>
<path style="fill:#88afc7; stroke:none;" d="M100 286L101 287L100 286z"/>
<path style="fill:#f2b181; stroke:none;" d="M187 286L188 287L187 286M211 286L212 287L211 286z"/>
<path style="fill:#785c4b; stroke:none;" d="M298 286L299 287L298 286z"/>
<path style="fill:#88afc7; stroke:none;" d="M299 286L300 287L299 286M97 287L98 288L97 287z"/>
<path style="fill:#785c4b; stroke:none;" d="M98 287L99 288L98 287z"/>
<path style="fill:#88afc7; stroke:none;" d="M171 287L172 288L171 287z"/>
<path style="fill:#f2b181; stroke:none;" d="M182 287L179 289L179 290L183 288L182 287M189 287L190 288L189 287M210 287L211 288L210 287M217 287L217 288L221 290L221 289L217 287z"/>
<path style="fill:#88afc7; stroke:none;" d="M228 287L229 288L228 287z"/>
<path style="fill:#785c4b; stroke:none;" d="M301 287L302 288L301 287z"/>
<path style="fill:#88afc7; stroke:none;" d="M302 287L303 288L302 287z"/>
<path style="fill:#785c4b; stroke:none;" d="M95 288L96 289L95 288z"/>
<path style="fill:#88afc7; stroke:none;" d="M172 288L173 289L172 288M227 288L228 289L227 288M304 288L305 289L304 288M92 289L93 290L92 289z"/>
<path style="fill:#785c4b; stroke:none;" d="M93 289L94 290L93 289M306 289L307 290L306 289z"/>
<path style="fill:#f2b181; stroke:none;" d="M90 290L91 291L90 290z"/>
<path style="fill:#785c4b; stroke:none;" d="M91 290L92 291L91 290z"/>
<path style="fill:#88afc7; stroke:none;" d="M173 290L174 291L173 290z"/>
<path style="fill:#f2b181; stroke:none;" d="M191 290L192 291L191 290M208 290L209 291L208 290z"/>
<path style="fill:#88afc7; stroke:none;" d="M226 290L227 291L226 290z"/>
<path style="fill:#785c4b; stroke:none;" d="M308 290L309 291L308 290z"/>
<path style="fill:#f2b181; stroke:none;" d="M309 290L310 291L309 290z"/>
<path style="fill:#88afc7; stroke:none;" d="M88 291L89 292L88 291z"/>
<path style="fill:#785c4b; stroke:none;" d="M89 291L90 292L89 291z"/>
<path style="fill:#88afc7; stroke:none;" d="M174.333 291.667L174.667 292.333L174.333 291.667M225.333 291.667L225.667 292.333L225.333 291.667z"/>
<path style="fill:#785c4b; stroke:none;" d="M310 291L311 292L310 291z"/>
<path style="fill:#88afc7; stroke:none;" d="M311 291L312 292L311 291M86 292L87 293L86 292z"/>
<path style="fill:#785c4b; stroke:none;" d="M87 292L88 293L87 292z"/>
<path style="fill:#f2b181; stroke:none;" d="M192 292L193 293L192 292z"/>
<path style="fill:#785c4b; stroke:none;" d="M312 292L313 293L312 292M85 293L86 294L85 293z"/>
<path style="fill:#f2b181; stroke:none;" d="M175 293L176 294L175 293M193 293L194 294L193 293M206 293L207 294L206 293M224 293L225 294L224 293z"/>
<path style="fill:#785c4b; stroke:none;" d="M314 293L315 294L314 293z"/>
<path style="fill:#88afc7; stroke:none;" d="M83 294L84 295L83 294M175 294L176 295L175 294M224 294L225 295L224 294M316 294L317 295L316 294M81 295L82 296L81 295z"/>
<path style="fill:#f2b181; stroke:none;" d="M176 295L177 296L176 295M194 295L195 296L194 295M205 295L206 296L205 295M223 295L224 296L223 295z"/>
<path style="fill:#785c4b; stroke:none;" d="M317 295L318 296L317 295z"/>
<path style="fill:#88afc7; stroke:none;" d="M80 296L81 297L80 296M176.333 296.667L176.667 297.333L176.333 296.667M223.333 296.667L223.667 297.333L223.333 296.667M319 296L320 297L319 296z"/>
<path style="fill:#785c4b; stroke:none;" d="M79 297L80 298L79 297z"/>
<path style="fill:#f2b181; stroke:none;" d="M195 297L196 298L195 297M204.333 297.667L204.667 298.333L204.333 297.667z"/>
<path style="fill:#785c4b; stroke:none;" d="M320 297L321 298L320 297M78 298L79 299L78 298z"/>
<path style="fill:#f2b181; stroke:none;" d="M177 298L178 299L177 298M222 298L223 299L222 298z"/>
<path style="fill:#785c4b; stroke:none;" d="M321 298L322 299L321 298z"/>
<path style="fill:#88afc7; stroke:none;" d="M76 299L77 300L76 299M177 299L178 300L177 299M222 299L223 300L222 299M323 299L324 300L323 299M75 300L76 301L75 300M324 300L325 301L324 300z"/>
<path style="fill:#f2b181; stroke:none;" d="M74 301L75 302L74 301z"/>
<path style="fill:#88afc7; stroke:none;" d="M178.333 301.667L178.667 302.333L178.333 301.667z"/>
<path style="fill:#f2b181; stroke:none;" d="M194 301L195 302L194 301z"/>
<path style="fill:#88afc7; stroke:none;" d="M221.333 301.667L221.667 302.333L221.333 301.667z"/>
<path style="fill:#f2b181; stroke:none;" d="M325 301L326 302L325 301M205 302L206 303L205 302M179 303L180 304L179 303M220 303L221 304L220 303z"/>
<path style="fill:#785c4b; stroke:none;" d="M72 304L73 305L72 304z"/>
<path style="fill:#88afc7; stroke:none;" d="M179 304L180 305L179 304M220 304L221 305L220 304z"/>
<path style="fill:#785c4b; stroke:none;" d="M327 304L328 305L327 304z"/>
<path style="fill:#88afc7; stroke:none;" d="M71 305L72 306L71 305z"/>
<path style="fill:#f2b181; stroke:none;" d="M180 305L181 306L180 305M219 305L220 306L219 305z"/>
<path style="fill:#88afc7; stroke:none;" d="M328 305L329 306L328 305M180.333 306.667L180.667 307.333L180.333 306.667z"/>
<path style="fill:#f2b181; stroke:none;" d="M193 306L194 307L193 306M206.333 306.667L206.667 307.333L206.333 306.667z"/>
<path style="fill:#88afc7; stroke:none;" d="M219.333 306.667L219.667 307.333L219.333 306.667M70 307L71 308L70 307M329 307L330 308L329 307z"/>
<path style="fill:#f2b181; stroke:none;" d="M181 308L182 309L181 308M218 308L219 309L218 308z"/>
<path style="fill:#88afc7; stroke:none;" d="M69 309L70 310L69 309M181 309L182 310L181 309M218 309L219 310L218 309M330 309L331 310L330 309z"/>
<path style="fill:#785c4b; stroke:none;" d="M69 310L70 311L69 310z"/>
<path style="fill:#f2b181; stroke:none;" d="M182 310L183 311L182 310M192.333 310.667L192.667 311.333L192.333 310.667M207 310L207 313L208 313L207 310M217 310L218 311L217 310z"/>
<path style="fill:#785c4b; stroke:none;" d="M330 310L331 311L330 310z"/>
<path style="fill:#88afc7; stroke:none;" d="M182.333 311.667L182.667 312.333L182.333 311.667M217.333 311.667L217.667 312.333L217.333 311.667M68 312L69 313L68 312M331 312L332 313L331 312z"/>
<path style="fill:#785c4b; stroke:none;" d="M68.3333 313.667L68.6667 314.333L68.3333 313.667z"/>
<path style="fill:#f2b181; stroke:none;" d="M183 313L184 314L183 313M216 313L217 314L216 313z"/>
<path style="fill:#785c4b; stroke:none;" d="M331 313L332 314L331 313z"/>
<path style="fill:#88afc7; stroke:none;" d="M183 314L184 315L183 314M216 314L217 315L216 314z"/>
<path style="fill:#f2b181; stroke:none;" d="M184 315L185 316L184 315M191.333 315.667L191.667 316.333L191.333 315.667M208.333 315.667L208.667 316.333L208.333 315.667M215 315L216 316L215 315z"/>
<path style="fill:#88afc7; stroke:none;" d="M67 316L68 317L67 316M184 316L185 317L184 316M215 316L216 317L215 316M332 316L333 317L332 316z"/>
<path style="fill:#785c4b; stroke:none;" d="M67.3333 317.667L67.6667 318.333L67.3333 317.667M332.333 317.667L332.667 318.333L332.333 317.667z"/>
<path style="fill:#f2b181; stroke:none;" d="M185 318L186 319L185 318M214 318L215 319L214 318z"/>
<path style="fill:#88afc7; stroke:none;" d="M185 319L186 320L185 319M214 319L215 320L214 319z"/>
<path style="fill:#f2b181; stroke:none;" d="M186 320L187 321L186 320M190 320L191 321L190 320M209.333 320.667L209.667 321.333L209.333 320.667M213 320L214 321L213 320z"/>
<path style="fill:#88afc7; stroke:none;" d="M66.3333 321.667L66.6667 322.333L66.3333 321.667M186.333 321.667L186.667 322.333L186.333 321.667M213.333 321.667L213.667 322.333L213.333 321.667M333 321L334 322L333 321z"/>
<path style="fill:#785c4b; stroke:none;" d="M333.333 322.667L333.667 323.333L333.333 322.667M66 323L67 324L66 323z"/>
<path style="fill:#f2b181; stroke:none;" d="M187 323L188 324L187 323M212 323L213 324L212 323z"/>
<path style="fill:#88afc7; stroke:none;" d="M187 324L188 325L187 324z"/>
<path style="fill:#f2b181; stroke:none;" d="M189 324L190 327L189 324z"/>
<path style="fill:#88afc7; stroke:none;" d="M212 324L213 325L212 324z"/>
<path style="fill:#f2b181; stroke:none;" d="M210 325L210 327L212 325L210 325z"/>
<path style="fill:#88afc7; stroke:none;" d="M65 326L66 327L65 326M334 326L335 327L334 326z"/>
<path style="fill:#785c4b; stroke:none;" d="M65 327L66 328L65 327M334 327L335 328L334 327z"/>
<path style="fill:#88afc7; stroke:none;" d="M64 331L65 332L64 331M335 331L336 332L335 331z"/>
<path style="fill:#785c4b; stroke:none;" d="M64 332L65 333L64 332M335 332L336 333L335 332z"/>
<path style="fill:#88afc7; stroke:none;" d="M63 334L64 335L63 334M336 334L337 335L336 334z"/>
<path style="fill:#785c4b; stroke:none;" d="M63.3333 335.667L63.6667 336.333L63.3333 335.667M336.333 335.667L336.667 336.333L336.333 335.667z"/>
<path style="fill:#88afc7; stroke:none;" d="M62 336L63 337L62 336M337 336L338 337L337 336M63 338L64 339L63 338M336 338L337 339L336 338M64 339L65 340L64 339M335 339L336 340L335 339M65 340L66 341L65 340M334 340L335 341L334 340M66 341L67 342L66 341M333 341L334 342L333 341z"/>
<path style="fill:#785c4b; stroke:none;" d="M67 342L68 343L67 342z"/>
<path style="fill:#88afc7; stroke:none;" d="M332 342L333 343L332 342M68 343L69 344L68 343M331 343L332 344L331 343z"/>
<path style="fill:#f2b181; stroke:none;" d="M69 344L70 345L69 344M330 344L331 345L330 344z"/>
<path style="fill:#785c4b; stroke:none;" d="M73 347L74 348L73 347M74 348L75 349L74 348M325 348L326 349L325 348M75 349L76 350L75 349M324 349L325 350L324 349M76 350L77 351L76 350M323 350L324 351L323 350z"/>
<path style="fill:#88afc7; stroke:none;" d="M77 351L78 352L77 351M322 351L323 352L322 351z"/>
<path style="fill:#f2b181; stroke:none;" d="M78 352L79 353L78 352M321 352L322 353L321 352M79 353L80 354L79 353M320 353L321 354L320 353M80 354L81 355L80 354z"/>
<path style="fill:#785c4b; stroke:none;" d="M81 354L83 356L81 354M318 354L317 356L318 354z"/>
<path style="fill:#f2b181; stroke:none;" d="M319 354L320 355L319 354z"/>
<path style="fill:#fdfefe; stroke:none;" d="M81 355L82 356L81 355M318 355L319 356L318 355z"/>
<path style="fill:#785c4b; stroke:none;" d="M83 356L84 357L83 356M316 356L317 357L316 356z"/>
<path style="fill:#88afc7; stroke:none;" d="M84 357L86 359L84 357z"/>
<path style="fill:#785c4b; stroke:none;" d="M85 357L86 358L85 357M314 357L313 359L314 357z"/>
<path style="fill:#88afc7; stroke:none;" d="M315 357L316 358L315 357z"/>
<path style="fill:#785c4b; stroke:none;" d="M86 358L87 359L86 358z"/>
<path style="fill:#88afc7; stroke:none;" d="M314 358L315 359L314 358z"/>
<path style="fill:#785c4b; stroke:none;" d="M87 359L88 360L87 359M312 359L313 360L312 359z"/>
<path style="fill:#88afc7; stroke:none;" d="M88 360L89 361L88 360z"/>
<path style="fill:#785c4b; stroke:none;" d="M89 360L90 361L89 360M310 360L311 361L310 360z"/>
<path style="fill:#88afc7; stroke:none;" d="M311 360L312 361L311 360z"/>
<path style="fill:#785c4b; stroke:none;" d="M90 361L91 362L90 361M214 361L214 365L273 365L273 361L214 361M309 361L310 362L309 361M91 362L92 363L91 362M308 362L309 363L308 362M93 363L95 365L93 363M306 363L305 365L306 363M96 365L98 367L96 365z"/>
<path style="fill:#88afc7; stroke:none;" d="M214 365L214 396L215 396L215 366L272 366L271 383C274.906 379.587 273 369.93 273 365L214 365z"/>
<path style="fill:#785c4b; stroke:none;" d="M303 365L302 367L303 365z"/>
<path style="fill:#fdfefe; stroke:none;" d="M215 366L215 396L234 394L234 393C229.853 391.786 223.868 394.059 220.318 391.806C215.489 388.742 218 374.079 218 369L237 369L237 392L242 392C246.668 383.535 264.604 390.746 270.972 381.501C273.468 377.877 272 370.235 272 366L215 366z"/>
<path style="fill:#785c4b; stroke:none;" d="M99 367L100 368L99 367M300 367L301 368L300 367M101 368L103 370L101 368M298 368L297 370L298 368z"/>
<path style="fill:#88afc7; stroke:none;" d="M218 369L218 392L219 392L219 370L236 370C236 377.053 238.192 387.561 233 393L240 393L240 392L237 392L237 369L218 369z"/>
<path style="fill:#785c4b; stroke:none;" d="M219 370L219 392L236 392L236 370L219 370z"/>
<path style="fill:#88afc7; stroke:none;" d="M241 371L241 372C249.432 369.993 260.568 369.993 269 372C263.356 367.724 247.628 369.041 241 371z"/>
<path style="fill:#785c4b; stroke:none;" d="M106 371L107 372L106 371M242 371L242 373L268 373L268 371L242 371M293 371L294 372L293 371M118 378L119 379L118 378z"/>
<path style="fill:#88afc7; stroke:none;" d="M241 380L241 382L268 383L268 382L242 382L242 380L269 381C263.356 376.724 247.628 378.041 241 380z"/>
<path style="fill:#785c4b; stroke:none;" d="M242 380L242 382L268 382L268 380L242 380M273 380L274 381L273 380M125 381L126 382L125 381z"/>
<path style="fill:#88afc7; stroke:none;" d="M268.667 383.333L269.333 383.667L268.667 383.333M266 384L267 385L266 384M263.667 385.333L264.333 385.667L263.667 385.333M261 386L262 387L261 386M256 387L256 388L259 388L256 387M242 392L243 392L251 389C247.043 387.342 243.659 387.873 242 392M253.667 388.333L254.333 388.667L253.667 388.333z"/>
<path style="fill:#785c4b; stroke:none;" d="M242 389L243 390L242 389M243 390L243 391L252 390L243 390z"/>
<path style="fill:#88afc7; stroke:none;" d="M220 392L220 393L226 393L220 392M232 393L233 394L232 393M227 394L227 395L230 395L227 394M216 395L216 396L219 396L216 395z"/>
<path style="fill:#f2b181; stroke:none;" d="M220 395L221 396L220 395z"/>
<path style="fill:#785c4b; stroke:none;" d="M221 395L222 396L221 395z"/>
</svg>
