<?xml version="1.0" standalone="no"?>
<!DOCTYPE svg PUBLIC "-//W3C//DTD SVG 20010904//EN"
 "http://www.w3.org/TR/2001/REC-SVG-20010904/DTD/svg10.dtd">
<svg version="1.0" xmlns="http://www.w3.org/2000/svg"
 width="820.000000pt" height="719.000000pt" viewBox="0 0 820.000000 719.000000"
 preserveAspectRatio="xMidYMid meet">

<g transform="translate(0.000000,719.000000) scale(0.100000,-0.100000)"
fill="#000000" stroke="none">
<path d="M3855 6775 c-281 -24 -503 -68 -750 -150 -297 -98 -516 -204 -775
-377 -204 -136 -291 -207 -486 -402 -195 -195 -266 -282 -402 -486 -454 -682
-623 -1470 -491 -2290 84 -527 307 -1027 650 -1461 105 -134 374 -403 509
-509 569 -451 1263 -693 1985 -693 724 0 1412 240 1986 694 124 98 408 380
503 499 163 204 338 496 436 723 163 380 239 724 265 1187 8 135 -14 436 -45
616 -166 973 -768 1810 -1640 2281 -387 209 -806 330 -1277 368 -212 17 -262
17 -468 0z m-1330 -1809 c215 -92 262 -116 273 -138 11 -25 -10 -79 -315 -789
-288 -671 -331 -765 -353 -772 -22 -8 -71 10 -295 106 -223 95 -272 120 -283
141 -13 25 6 72 309 779 177 414 329 760 337 770 8 9 27 17 41 16 14 0 143
-51 286 -113z m3578 82 c24 -18 639 -1535 632 -1557 -10 -33 -37 -46 -291
-149 -243 -99 -284 -111 -312 -93 -13 8 -618 1482 -628 1531 -4 17 1 33 13 47
17 21 520 232 554 233 8 0 23 -6 32 -12z m-1423 -242 c287 -110 453 -155 600
-163 l106 -6 282 -661 c155 -363 284 -668 287 -676 4 -11 -39 -42 -159 -113
l-165 -99 -513 451 c-568 499 -527 470 -659 458 -79 -7 -148 -41 -369 -182
-228 -146 -247 -155 -330 -155 -86 0 -138 25 -210 100 -130 135 -135 233 -17
368 23 27 80 93 126 146 194 225 450 417 655 493 132 49 294 66 366 39z m-762
-45 c23 -12 42 -25 42 -29 0 -4 -142 -149 -316 -322 l-316 -315 6 -71 c12
-149 84 -308 176 -386 132 -113 293 -126 503 -38 94 39 238 133 297 194 60 62
117 88 186 84 l53 -3 541 -465 c540 -463 542 -465 536 -498 -9 -58 -51 -118
-99 -141 -52 -25 -159 -28 -231 -7 -53 16 -51 18 -60 -58 -7 -59 -50 -141 -91
-171 -50 -37 -99 -48 -194 -42 -47 3 -98 9 -112 12 -24 6 -27 4 -34 -32 -32
-172 -167 -266 -340 -234 -67 12 -75 7 -75 -46 0 -50 -38 -140 -71 -167 -48
-41 -100 -52 -172 -37 -69 14 -172 61 -172 78 0 6 82 88 183 183 201 189 190
172 171 290 -28 175 -125 257 -293 248 l-73 -3 -11 55 c-32 155 -161 241 -344
228 -62 -5 -68 -4 -73 16 -20 75 -33 102 -66 140 -51 57 -122 88 -220 94 l-76
4 -18 60 c-24 79 -71 146 -130 183 -57 35 -154 45 -243 25 -51 -11 -66 -22
-195 -144 -77 -72 -155 -144 -173 -159 l-33 -28 -45 33 c-25 18 -45 36 -46 40
0 5 515 1161 570 1279 12 26 15 26 133 32 136 6 259 29 434 82 232 69 402 82
491 36z m-979 -1305 c59 -31 96 -105 89 -180 -3 -37 -16 -51 -215 -238 l-212
-198 -61 0 c-33 0 -75 6 -93 14 -65 27 -107 102 -107 193 l0 42 223 196 222
197 62 -6 c34 -3 76 -12 92 -20z m381 -285 c55 -28 80 -73 80 -145 l0 -61
-204 -196 c-221 -213 -229 -218 -321 -200 -80 15 -127 61 -144 141 -20 94 -27
84 176 261 291 255 258 232 323 225 30 -4 71 -15 90 -25z m380 -237 c66 -20
114 -65 130 -123 21 -78 12 -91 -204 -297 -109 -104 -208 -192 -220 -196 -11
-3 -44 -6 -71 -7 -112 -2 -184 72 -188 195 l-2 58 225 192 c161 138 232 193
251 193 14 1 50 -6 79 -15z m402 -280 c57 -18 103 -67 119 -126 21 -80 14 -90
-216 -293 l-210 -185 -63 0 c-34 0 -78 6 -96 14 -41 17 -80 67 -95 121 -24 87
-31 77 221 295 258 222 231 208 340 174z"/>
</g>
</svg>
